<svg width="208" height="32" viewBox="0 0 208 32" fill="none" xmlns="http://www.w3.org/2000/svg">
<path fill-rule="evenodd" clip-rule="evenodd" d="M13.398 7.48842C13.8158 6.2437 13.1385 4.8983 11.8854 4.4834C10.6322 4.06849 9.2777 4.74119 8.85998 5.98591L4.13385 20.0689C4.41899 20.0147 4.71328 19.9864 5.0142 19.9864C6.47044 19.9864 7.77159 20.6504 8.63138 21.6922L13.398 7.48842Z" fill="#3A80C0"/>
<path fill-rule="evenodd" clip-rule="evenodd" d="M5.01424 28.32C7.02785 28.32 8.6602 26.6876 8.6602 24.674C8.6602 22.6604 7.02785 21.0281 5.01424 21.0281C3.00064 21.0281 1.36829 22.6604 1.36829 24.674C1.36829 26.6876 3.00064 28.32 5.01424 28.32ZM5.01424 26.9311C6.26076 26.9311 7.27127 25.9206 7.27127 24.674C7.27127 23.4275 6.26076 22.417 5.01424 22.417C3.76773 22.417 2.75722 23.4275 2.75722 24.674C2.75722 25.9206 3.76773 26.9311 5.01424 26.9311Z" fill="#3A80C0"/>
<path fill-rule="evenodd" clip-rule="evenodd" d="M20.7651 19.3408L25.2688 25.9231C25.9907 26.9782 27.4312 27.2484 28.4863 26.5264C29.5414 25.8045 29.8115 24.364 29.0896 23.3088L22.7775 14.0834L22.6111 13.8401L20.7651 19.3408Z" fill="#CCCCCC"/>
<path fill-rule="evenodd" clip-rule="evenodd" d="M23.2065 12.0658C22.883 12.1364 22.547 12.1736 22.2023 12.1736C20.792 12.1736 19.5272 11.5508 18.6678 10.5652L13.9921 24.498C13.5744 25.7427 14.2516 27.0881 15.5048 27.503C16.7579 27.9179 18.1124 27.2452 18.5302 26.0005L23.2065 12.0658Z" fill="#FFAC30"/>
<path fill-rule="evenodd" clip-rule="evenodd" d="M14.8081 22.0664L10.5797 15.8865L12.4257 10.3859L16.654 16.5658L14.8081 22.0664Z" fill="#CCCCCC"/>
<path fill-rule="evenodd" clip-rule="evenodd" d="M22.2023 11.1319C24.2159 11.1319 25.8483 9.49959 25.8483 7.48598C25.8483 5.47238 24.2159 3.84003 22.2023 3.84003C20.1887 3.84003 18.5564 5.47238 18.5564 7.48598C18.5564 9.49959 20.1887 11.1319 22.2023 11.1319ZM22.2023 9.74301C23.4488 9.74301 24.4593 8.7325 24.4593 7.48598C24.4593 6.23947 23.4488 5.22896 22.2023 5.22896C20.9558 5.22896 19.9453 6.23947 19.9453 7.48598C19.9453 8.7325 20.9558 9.74301 22.2023 9.74301Z" fill="#FFAC30"/>
<path d="M50.444 10.068H61.136V11.76H50.444V10.068ZM55.718 20.202H60.524V21.876H55.718V20.202ZM50.138 14.964H61.55V16.638H50.138V14.964ZM51.2 12.516H60.416V19.14H51.2V17.538H58.418V14.136H51.2V12.516ZM54.584 8.7H56.582V24.558L54.584 23.406V8.7ZM51.11 19.392L53.09 19.644C52.73 22.2 51.902 24.342 50.534 25.71C50.192 25.368 49.364 24.774 48.896 24.522C50.192 23.388 50.858 21.534 51.11 19.392ZM52.55 20.94C53.558 23.172 55.628 23.604 58.094 23.604C58.652 23.604 60.794 23.604 61.55 23.586C61.298 24.018 61.028 24.9 60.956 25.422H57.968C54.728 25.422 52.442 24.702 51.056 21.516L52.55 20.94ZM44.36 17.772C45.8 17.448 47.942 16.872 49.976 16.296L50.264 18.24C48.41 18.816 46.43 19.392 44.846 19.842L44.36 17.772ZM44.648 12.138H50.156V14.118H44.648V12.138ZM46.556 8.736H48.536V23.334C48.536 24.342 48.356 24.9 47.798 25.224C47.258 25.566 46.484 25.638 45.314 25.638C45.26 25.098 45.008 24.216 44.756 23.622C45.404 23.658 46.034 23.658 46.25 23.64C46.466 23.64 46.556 23.586 46.556 23.334V8.736ZM72.224 11.346H74.33V22.974H72.224V11.346ZM70.46 17.412V18.132H76.184V17.412H70.46ZM70.46 15.468V16.17H76.184V15.468H70.46ZM68.714 14.136H78.002V19.446H68.714V14.136ZM67.742 9.276H78.686V12.768H76.616V10.86H69.722V12.768H67.742V9.276ZM69.218 11.994H77.336V13.488H69.218V11.994ZM67.958 20.202H78.902V21.804H67.958V20.202ZM63.188 9.672L64.808 8.718C65.618 9.582 66.572 10.716 67.058 11.454L65.366 12.606C64.916 11.832 63.944 10.572 63.188 9.672ZM62.756 12.948H66.518V14.676H62.756V12.948ZM66.41 20.742C67.364 23.172 69.488 23.46 72.746 23.478C74.672 23.478 77.642 23.37 79.694 23.172C79.388 23.604 79.118 24.576 79.01 25.152C77.12 25.278 74.816 25.314 72.71 25.314C68.534 25.314 66.302 24.774 64.97 21.318L66.41 20.742ZM65.69 17.286H66.338L66.68 17.25L67.58 17.61C67.058 21.552 65.69 24.252 63.782 25.674C63.494 25.26 62.792 24.522 62.378 24.234C64.16 23.028 65.294 20.76 65.69 17.61V17.286ZM63.098 19.248V17.7L63.872 17.286H66.518V18.96H64.196C63.764 18.96 63.242 19.086 63.098 19.248ZM63.098 19.248C62.972 18.798 62.594 17.88 62.396 17.484C62.702 17.412 62.99 17.286 63.332 16.908C63.854 16.404 65.438 14.1 66.05 13.11V13.056L66.59 12.822L67.904 13.416C67.076 14.658 65.546 16.89 64.538 18.06C64.538 18.06 63.098 18.762 63.098 19.248ZM88.118 12.21L89.486 11.058C91.124 11.634 93.41 12.606 94.634 13.308L93.158 14.604C92.06 13.902 89.792 12.858 88.118 12.21ZM86.444 13.236H95.48V14.802H88.352V22.542H86.444V13.236ZM94.724 13.236H96.65V20.742C96.65 21.588 96.488 22.02 95.93 22.308C95.408 22.56 94.634 22.578 93.572 22.578C93.5 22.092 93.266 21.408 93.05 20.976C93.644 20.994 94.256 20.994 94.454 20.994C94.67 20.994 94.724 20.922 94.724 20.742V13.236ZM86.642 9.312H95.228V10.914H86.642V9.312ZM87.614 15.774H95.336V17.268H87.614V15.774ZM87.614 18.294H95.336V19.86H87.614V18.294ZM90.548 13.974H92.384V22.488H90.548V13.974ZM94.454 9.312H94.94L95.372 9.204L96.65 10.248C95.372 11.436 93.59 12.714 91.934 13.506C91.682 13.146 91.16 12.588 90.854 12.3C92.204 11.652 93.77 10.518 94.454 9.69V9.312ZM81.206 9.708L82.808 8.718C83.672 9.564 84.68 10.698 85.22 11.418L83.582 12.624C83.078 11.85 82.034 10.59 81.206 9.708ZM80.756 12.912H84.572V14.64H80.756V12.912ZM84.41 20.742C85.382 23.172 87.488 23.46 90.746 23.478C92.672 23.478 95.642 23.352 97.676 23.172C97.388 23.604 97.1 24.576 96.992 25.17C95.12 25.278 92.816 25.332 90.71 25.332C86.534 25.332 84.302 24.774 82.97 21.318L84.41 20.742ZM83.978 17.286H84.482L84.824 17.25L85.868 17.628C85.256 21.606 83.78 24.27 81.674 25.638C81.404 25.224 80.702 24.486 80.306 24.198C82.25 23.028 83.528 20.778 83.978 17.61V17.286ZM81.098 19.248V17.7L81.872 17.286H84.59L84.572 18.96H82.196C81.764 18.96 81.242 19.086 81.098 19.248ZM81.098 19.248C80.972 18.798 80.594 17.88 80.396 17.484C80.702 17.412 80.99 17.286 81.332 16.908C81.872 16.404 83.492 14.1 84.104 13.11V13.056L84.662 12.822L85.976 13.416C85.13 14.658 83.564 16.89 82.538 18.06C82.538 18.06 81.098 18.762 81.098 19.248Z" fill="#333333"/>
<path d="M122.342 9.95703L123.943 24H121.268L120.115 13.5508H120.057L117.039 24.0488H114.031L111.014 13.5508H110.955L109.803 24H107.127L108.729 9.95703H112.303L115.535 21.2168L118.768 9.95703H122.342ZM131.6 9.95703C132.231 9.95703 132.814 10.0384 133.348 10.2012C133.882 10.3574 134.344 10.5951 134.734 10.9141C135.125 11.2331 135.428 11.6367 135.643 12.125C135.864 12.6133 135.975 13.1829 135.975 13.834C135.975 14.3613 135.887 14.8431 135.711 15.2793C135.535 15.7155 135.288 16.0964 134.969 16.4219C134.65 16.7409 134.272 17.0013 133.836 17.2031C133.4 17.4049 132.918 17.5384 132.391 17.6035L132.381 17.6328C132.641 17.7826 132.895 17.9941 133.143 18.2676C133.39 18.5345 133.628 18.8275 133.855 19.1465C134.09 19.4655 134.311 19.791 134.52 20.123C134.734 20.4551 134.93 20.7611 135.105 21.041L137.039 24H133.963C133.735 23.6224 133.478 23.1927 133.191 22.7109C132.911 22.2227 132.628 21.7376 132.342 21.2559C132.062 20.7741 131.795 20.3281 131.541 19.918C131.294 19.5013 131.092 19.1758 130.936 18.9414C130.786 18.7266 130.646 18.5443 130.516 18.3945C130.392 18.2448 130.265 18.1243 130.135 18.0332C130.005 17.9421 129.865 17.877 129.715 17.8379C129.572 17.7988 129.409 17.776 129.227 17.7695H129.148V24H126.424V9.95703H131.6ZM130.555 15.8945C130.978 15.8945 131.352 15.862 131.678 15.7969C132.01 15.7253 132.286 15.6113 132.508 15.4551C132.736 15.2923 132.908 15.0807 133.025 14.8203C133.143 14.5599 133.201 14.2409 133.201 13.8633C133.201 13.4857 133.143 13.1667 133.025 12.9062C132.908 12.6458 132.736 12.4375 132.508 12.2812C132.286 12.1185 132.01 12.0046 131.678 11.9395C131.352 11.8678 130.978 11.832 130.555 11.832H129.148V15.8945H130.555ZM149.432 9.95703V11.959H145.33V24H142.605V11.959H138.465V9.95703H149.432ZM163.094 9.95703C163.777 9.95703 164.386 10.0514 164.92 10.2402C165.46 10.4225 165.916 10.6927 166.287 11.0508C166.658 11.4089 166.941 11.8516 167.137 12.3789C167.332 12.9062 167.43 13.5117 167.43 14.1953C167.43 14.9375 167.309 15.5885 167.068 16.1484C166.827 16.7018 166.482 17.1641 166.033 17.5352C165.584 17.9062 165.04 18.1862 164.402 18.375C163.764 18.5638 163.051 18.6582 162.264 18.6582C161.899 18.6582 161.554 18.6484 161.229 18.6289C160.91 18.6029 160.626 18.5768 160.379 18.5508V24H157.654V9.95703H163.094ZM160.379 16.6855C160.587 16.7181 160.792 16.7441 160.994 16.7637C161.202 16.7767 161.404 16.7832 161.6 16.7832C162.101 16.7832 162.54 16.7409 162.918 16.6562C163.302 16.5716 163.621 16.4316 163.875 16.2363C164.135 16.041 164.331 15.7871 164.461 15.4746C164.591 15.1621 164.656 14.7747 164.656 14.3125C164.656 13.8568 164.607 13.4727 164.51 13.1602C164.412 12.8411 164.256 12.584 164.041 12.3887C163.826 12.1934 163.549 12.0534 163.211 11.9688C162.872 11.8776 162.462 11.832 161.98 11.832H160.379V16.6855ZM176.99 9.95703L182.293 24H179.539L177.938 19.6836H173.309L171.707 24H168.953L174.256 9.95703H176.99ZM175.623 12.8574L174.031 17.7207H177.215L175.623 12.8574ZM184.461 21.5684C185.001 21.7767 185.577 21.9525 186.189 22.0957C186.808 22.2324 187.479 22.3008 188.201 22.3008C188.67 22.3008 189.1 22.2585 189.49 22.1738C189.881 22.0892 190.216 21.9557 190.496 21.7734C190.783 21.5911 191.004 21.36 191.16 21.0801C191.323 20.7936 191.404 20.4518 191.404 20.0547C191.404 19.625 191.316 19.2832 191.141 19.0293C190.971 18.7754 190.73 18.5671 190.418 18.4043C190.105 18.2415 189.728 18.1048 189.285 17.9941C188.842 17.8835 188.351 17.7598 187.811 17.623C187.205 17.4668 186.652 17.2878 186.15 17.0859C185.656 16.8841 185.232 16.6237 184.881 16.3047C184.529 15.9857 184.256 15.5918 184.061 15.123C183.865 14.6543 183.768 14.0749 183.768 13.3848C183.768 12.9225 183.842 12.5091 183.992 12.1445C184.148 11.7799 184.357 11.4642 184.617 11.1973C184.878 10.9238 185.177 10.6927 185.516 10.5039C185.861 10.3151 186.219 10.1621 186.59 10.0449C186.967 9.92773 187.352 9.8431 187.742 9.79102C188.133 9.73893 188.504 9.71289 188.855 9.71289C189.103 9.71289 189.399 9.72591 189.744 9.75195C190.096 9.77799 190.467 9.82682 190.857 9.89844C191.255 9.96354 191.661 10.0514 192.078 10.1621C192.501 10.2728 192.908 10.4128 193.299 10.582L192.605 12.2812C192.085 12.0924 191.541 11.9395 190.975 11.8223C190.415 11.7051 189.826 11.6465 189.207 11.6465C188.816 11.6465 188.458 11.679 188.133 11.7441C187.807 11.8027 187.524 11.9004 187.283 12.0371C187.049 12.1738 186.867 12.3529 186.736 12.5742C186.606 12.7956 186.541 13.0625 186.541 13.375C186.541 13.7786 186.619 14.0944 186.775 14.3223C186.938 14.5501 187.169 14.7357 187.469 14.8789C187.768 15.0221 188.133 15.1458 188.562 15.25C188.999 15.3477 189.49 15.4681 190.037 15.6113C190.636 15.7676 191.186 15.9531 191.688 16.168C192.195 16.3763 192.632 16.6497 192.996 16.9883C193.367 17.3203 193.657 17.7337 193.865 18.2285C194.074 18.7233 194.178 19.332 194.178 20.0547C194.178 20.6927 194.077 21.2396 193.875 21.6953C193.673 22.151 193.41 22.5352 193.084 22.8477C192.758 23.1536 192.387 23.3978 191.971 23.5801C191.554 23.7624 191.131 23.9023 190.701 24C190.271 24.0977 189.855 24.1595 189.451 24.1855C189.048 24.2181 188.693 24.2344 188.387 24.2344C188.087 24.2279 187.749 24.2083 187.371 24.1758C187 24.1432 186.609 24.0911 186.199 24.0195C185.789 23.9479 185.372 23.8535 184.949 23.7363C184.533 23.6126 184.129 23.4629 183.738 23.2871L184.461 21.5684ZM196.883 21.5684C197.423 21.7767 197.999 21.9525 198.611 22.0957C199.23 22.2324 199.9 22.3008 200.623 22.3008C201.092 22.3008 201.521 22.2585 201.912 22.1738C202.303 22.0892 202.638 21.9557 202.918 21.7734C203.204 21.5911 203.426 21.36 203.582 21.0801C203.745 20.7936 203.826 20.4518 203.826 20.0547C203.826 19.625 203.738 19.2832 203.562 19.0293C203.393 18.7754 203.152 18.5671 202.84 18.4043C202.527 18.2415 202.15 18.1048 201.707 17.9941C201.264 17.8835 200.773 17.7598 200.232 17.623C199.627 17.4668 199.074 17.2878 198.572 17.0859C198.077 16.8841 197.654 16.6237 197.303 16.3047C196.951 15.9857 196.678 15.5918 196.482 15.123C196.287 14.6543 196.189 14.0749 196.189 13.3848C196.189 12.9225 196.264 12.5091 196.414 12.1445C196.57 11.7799 196.779 11.4642 197.039 11.1973C197.299 10.9238 197.599 10.6927 197.938 10.5039C198.283 10.3151 198.641 10.1621 199.012 10.0449C199.389 9.92773 199.773 9.8431 200.164 9.79102C200.555 9.73893 200.926 9.71289 201.277 9.71289C201.525 9.71289 201.821 9.72591 202.166 9.75195C202.518 9.77799 202.889 9.82682 203.279 9.89844C203.676 9.96354 204.083 10.0514 204.5 10.1621C204.923 10.2728 205.33 10.4128 205.721 10.582L205.027 12.2812C204.507 12.0924 203.963 11.9395 203.396 11.8223C202.837 11.7051 202.247 11.6465 201.629 11.6465C201.238 11.6465 200.88 11.679 200.555 11.7441C200.229 11.8027 199.946 11.9004 199.705 12.0371C199.471 12.1738 199.288 12.3529 199.158 12.5742C199.028 12.7956 198.963 13.0625 198.963 13.375C198.963 13.7786 199.041 14.0944 199.197 14.3223C199.36 14.5501 199.591 14.7357 199.891 14.8789C200.19 15.0221 200.555 15.1458 200.984 15.25C201.421 15.3477 201.912 15.4681 202.459 15.6113C203.058 15.7676 203.608 15.9531 204.109 16.168C204.617 16.3763 205.053 16.6497 205.418 16.9883C205.789 17.3203 206.079 17.7337 206.287 18.2285C206.495 18.7233 206.6 19.332 206.6 20.0547C206.6 20.6927 206.499 21.2396 206.297 21.6953C206.095 22.151 205.831 22.5352 205.506 22.8477C205.18 23.1536 204.809 23.3978 204.393 23.5801C203.976 23.7624 203.553 23.9023 203.123 24C202.693 24.0977 202.277 24.1595 201.873 24.1855C201.469 24.2181 201.115 24.2344 200.809 24.2344C200.509 24.2279 200.171 24.2083 199.793 24.1758C199.422 24.1432 199.031 24.0911 198.621 24.0195C198.211 23.9479 197.794 23.8535 197.371 23.7363C196.954 23.6126 196.551 23.4629 196.16 23.2871L196.883 21.5684Z" fill="#333333"/>
</svg>
